<?xml version="1.0" encoding="UTF-8"?>
<svg width="144px" height="184px" viewBox="0 0 144 184" version="1.1" xmlns="http://www.w3.org/2000/svg" xmlns:xlink="http://www.w3.org/1999/xlink">
    <!-- Generator: Sketch 63.1 (92452) - https://sketch.com -->
    <title>photo_profile_5</title>
    <desc>Created with Sketch.</desc>
    <defs>
        <filter x="-12.5%" y="-13.1%" width="125.0%" height="126.1%" filterUnits="objectBoundingBox" id="filter-1">
            <feOffset dx="0" dy="2" in="SourceAlpha" result="shadowOffsetOuter1"></feOffset>
            <feGaussianBlur stdDeviation="5" in="shadowOffsetOuter1" result="shadowBlurOuter1"></feGaussianBlur>
            <feColorMatrix values="0 0 0 0 0   0 0 0 0 0   0 0 0 0 0  0 0 0 0.298623252 0" type="matrix" in="shadowBlurOuter1" result="shadowMatrixOuter1"></feColorMatrix>
            <feMerge>
                <feMergeNode in="shadowMatrixOuter1"></feMergeNode>
                <feMergeNode in="SourceGraphic"></feMergeNode>
            </feMerge>
        </filter>
        <rect id="path-2" x="0" y="0" width="184" height="176"></rect>
    </defs>
    <g id="Imagenes-SEO-/-Perfiles" stroke="none" stroke-width="1" fill="none" fill-rule="evenodd">
        <g id="Fotos-de-perfil" transform="translate(-836.000000, 0.000000)">
            <g id="photo_profile_5" filter="url(#filter-1)" transform="translate(816.000000, 0.000000)">
                <mask id="mask-3" fill="white">
                    <use xlink:href="#path-2"></use>
                </mask>
                <g id="Rectangle"></g>
                <g id="photo_profile_" mask="url(#mask-3)">
                    <g transform="translate(29.000000, 2.000000)" id="Grupo_63">
                        <g>
                            <g id="Grupo_49" fill="#FFFFFF" fill-rule="nonzero">
                                <g id="Group">
                                    <path d="M12.952,156.36 L45.665,168.9 C45.984,169.022 46.302,169.135 46.624,169.24 C53.3015859,171.418707 60.6357552,169.787997 65.761,164.985 C69.2072141,167.129619 72.8836419,168.879948 76.721,170.203 L76.9,170.264 C79.0714903,170.96739 81.4536294,170.331735 82.986,168.64 C84.026,167.491 92.339,157.986 93.518,146.94 C95.2875465,146.158071 96.5507316,144.545335 96.886,142.64 C97.9243087,135.500455 96.5072708,128.219934 92.867,121.991 L92.867,121.991 C106.467,100.233 105.894,93.408 105.708,91.164 C105.663808,90.6452011 105.582601,90.130223 105.465,89.623 L122.817,55.584 C122.979,55.265 123.129,54.946 123.258,54.65 C123.387,54.354 123.503,54.076 123.618,53.783 C126.081023,47.3689031 124.967681,40.1304645 120.691,34.753 C120.477,34.4863333 120.256333,34.224 120.029,33.966 L119.935,33.861 C119.723,33.626 119.505,33.394 119.263,33.151 L119.15,33.041 C118.927,32.822 118.703,32.608 118.52,32.441 C118.449,32.375 118.375,32.311 118.308,32.255 C118.087,32.061 117.862,31.87 117.641,31.694 L117.509,31.594 C115.739952,30.2076591 113.74035,29.1440482 111.602,28.452 C110.422202,28.0706484 109.2087,27.8027672 107.978,27.652 L64.647,22.3 C64.488,22.152 63.892,21.606 63.892,21.606 C63.67,21.406 63.45,21.206 63.237,21.022 L62.975,20.792 C62.752,20.592 62.09,20.035 62.09,20.035 C61.866,19.846 61.645,19.665 61.433,19.49 L61.22,19.316 C60.988,19.129 60.409,18.67 60.409,18.67 C60.148,18.47 59.894,18.27 59.688,18.115 L59.564,18.021 C58.871,17.5 58.2,17.021 57.526,16.557 L56.803,12.675 C58.9299671,9.31891376 58.14958,4.89501144 55.0026806,2.46924806 C51.8557812,0.0434846684 47.3789561,0.414905108 44.6748382,3.326099 C41.9707202,6.23729289 41.930044,10.7293148 44.581,13.689 C44.595,15.119 44.611,16.798 44.627,18.508 C44.519,18.643 44.197,19.05 44.197,19.05 C44.021,19.271 43.846,19.493 43.675,19.714 L39.984,19.258 C38.5654919,19.0874925 37.1325187,19.073743 35.711,19.217 C35.356,19.252 35.002,19.292 34.66,19.346 C34.41,19.384 34.16,19.431 33.885,19.486 C33.61,19.541 33.327,19.602 33.052,19.67 C32.777,19.738 32.517,19.804 32.235,19.885 C32.035,19.945 31.835,20.011 31.551,20.103 C30.4274637,20.4771444 29.3403126,20.952773 28.303,21.524 L28.074,21.65 C27.724,21.85 27.384,22.059 27.017,22.299 L26.807,22.441 C26.463,22.674 26.124,22.915 25.788,23.174 C22.004558,26.1021128 19.4453328,30.3326761 18.608,35.043 L0.852,134.949 C-0.757890315,144.061945 4.31475847,153.038018 12.952,156.36 L12.952,156.36 Z" id="Trazado_128-2"></path>
                                </g>
                            </g>
                            <g id="Grupo_62" transform="translate(6.000000, 6.000000)" fill-rule="nonzero">
                                <g id="Grupo_53" transform="translate(0.000000, 18.000000)">
                                    <g id="Grupo_51">
                                        <path d="M101.27,9.4 L33.27,1.012 C26.1387056,0.132904385 19.5659425,4.98669797 18.308,12.061 L0.553,111.967 C-0.581002854,118.346311 2.9719418,124.63287 9.022,126.952 L41.731,139.49 C48.1870881,141.965083 55.4701005,139.168206 58.61,133.008 L111.654,28.953 C113.656373,25.0254336 113.617446,20.3681244 111.549702,16.4745771 C109.481958,12.5810298 105.645275,9.94059258 101.27,9.4 L101.27,9.4 Z" id="Trazado_129" fill="#383866"></path>
                                        <g id="Grupo_50" transform="translate(3.000000, 0.000000)" fill="#454577">
                                            <path d="M74.806,19.453 C86.164,20.627 98.029,20.325 108.463,16.316 C107.471111,14.4997337 106.076464,12.9347332 104.386,11.741 C94.524,14.995 83.347,14.781 73.037,13.493 C57.3662164,11.6801231 42.0718023,7.44571227 27.7,0.941 C25.0225832,1.12598667 22.4612883,2.10579689 20.344,3.755 C37.3618734,12.3339435 55.8327538,17.657947 74.806,19.453 Z" id="Trazado_130"></path>
                                            <path d="M64.93,114.728 C57.723,108.046 50.63,101.156 42.586,95.548 C30.8787172,87.4078487 17.1264993,82.7075 2.886,81.979 L0.227,96.94 C13.8822733,97.2199455 27.0517009,102.058556 37.64,110.686 C44.631,116.386 51.116,122.659 57.812,128.694 L64.93,114.728 Z" id="Trazado_131"></path>
                                            <path d="M60.84,28.664 C49.0879199,26.6881576 37.5837919,23.4480115 26.528,19 C22.628,17.423 18.787,15.719 14.976,13.944 L12.252,29.273 C15.942,30.921 19.666,32.491 23.443,33.929 C35.2614536,38.4919519 47.5268616,41.7997977 60.037,43.798 C73.4821663,45.9754875 87.1677895,46.2397732 100.687,44.583 L108.657,28.949 C108.866233,28.5343952 109.054471,28.1095247 109.221,27.676 C93.441,31.409 77,31.412 60.84,28.664 Z" id="Trazado_132"></path>
                                            <path d="M42.121,84.314 C52.357,88.868 62.98,93.396 73.041,98.814 L75.665,93.668 C64.937,87.89 53.592,83.087 42.697,78.282 C30.869,73.066 18.437,68.46 5.71,66.082 L4.721,71.647 C17.647,74.108 30.267,79.039 42.121,84.314 Z" id="Trazado_133"></path>
                                        </g>
                                    </g>
                                    <g id="Grupo_52" transform="translate(7.000000, 19.000000)" fill="#FDCC24">
                                        <path d="M1.788,93.027 C0.469,92.598 0.026,94.709 1.335,95.134 C2.644,95.559 3.1,93.452 1.788,93.027 Z" id="Trazado_134"></path>
                                        <path d="M15.817,84.076 C14.497,83.647 14.055,85.758 15.364,86.183 C16.673,86.608 17.126,84.5 15.817,84.076 Z" id="Trazado_135"></path>
                                        <path d="M19.378,96.355 C18.058,95.926 17.616,98.037 18.925,98.462 C20.234,98.887 20.687,96.78 19.378,96.355 Z" id="Trazado_136"></path>
                                        <path d="M8.01,78.76 C6.69,78.332 6.248,80.443 7.557,80.868 C8.866,81.293 9.319,79.185 8.01,78.76 Z" id="Trazado_137"></path>
                                        <path d="M86.564,9.329 C85.244,8.901 84.802,11.011 86.111,11.436 C87.42,11.861 87.873,9.754 86.564,9.329 Z" id="Trazado_138"></path>
                                        <path d="M81.276,20.721 C79.957,20.292 79.514,22.403 80.823,22.828 C82.132,23.253 82.585,21.146 81.276,20.721 Z" id="Trazado_139"></path>
                                        <path d="M73.726,2.38 C72.406,1.951 71.964,4.062 73.273,4.487 C74.582,4.912 75.035,2.8 73.726,2.38 Z" id="Trazado_140"></path>
                                        <path d="M3.728,86.066 C3.288,85.923 3.141,86.627 3.577,86.766 C4.013,86.905 4.165,86.208 3.728,86.066 Z" id="Trazado_141"></path>
                                        <path d="M10.108,92.11 C9.668,91.967 9.52,92.671 9.957,92.81 C10.394,92.949 10.544,92.252 10.108,92.11 Z" id="Trazado_142"></path>
                                        <path d="M10.118,62.718 C9.678,62.575 9.531,63.279 9.967,63.418 C10.403,63.557 10.554,62.86 10.118,62.718 Z" id="Trazado_143"></path>
                                        <path d="M4.728,60.968 C4.288,60.825 4.14,61.529 4.577,61.668 C5.014,61.807 5.164,61.11 4.728,60.968 Z" id="Trazado_144"></path>
                                        <path d="M13.386,22.07 C12.946,21.927 12.799,22.631 13.235,22.77 C13.671,22.909 13.822,22.212 13.386,22.07 Z" id="Trazado_145"></path>
                                        <path d="M17.17,32.435 C16.731,32.292 16.583,32.996 17.019,33.135 C17.455,33.274 17.607,32.577 17.17,32.435 Z" id="Trazado_146"></path>
                                        <path d="M88.728,0.455 C88.288,0.312 88.141,1.016 88.577,1.155 C89.013,1.294 89.165,0.6 88.728,0.455 Z" id="Trazado_147"></path>
                                        <path d="M73.64,11.445 C73.2,11.302 73.053,12.006 73.489,12.145 C73.925,12.284 74.076,11.587 73.64,11.445 Z" id="Trazado_148"></path>
                                        <path d="M95.289,14.5 C94.85,14.357 94.702,15.06 95.139,15.2 C95.576,15.34 95.726,14.644 95.289,14.5 Z" id="Trazado_149"></path>
                                        <path d="M26.749,111.814 C26.309,111.671 26.162,112.375 26.598,112.514 C27.034,112.653 27.185,111.956 26.749,111.814 Z" id="Trazado_150"></path>
                                        <path d="M31.631,94.332 C31.191,94.189 31.044,94.893 31.48,95.032 C31.916,95.171 32.068,94.474 31.631,94.332 Z" id="Trazado_151"></path>
                                    </g>
                                </g>
                                <g id="Grupo_61" transform="translate(19.000000, 0.000000)">
                                    <g id="Grupo_54" transform="translate(9.000000, 13.000000)">
                                        <path d="M21.32,100.279 C21.32,100.279 -23.103,46.722 17.32,0.526 C17.32,0.526 63.083,23.86 44.914,97.471 C44.914,97.471 35.294,104.069 21.32,100.279 Z" id="Trazado_152" fill="#D7DADF"></path>
                                        <path d="M15.435,28.29 C11.2049249,27.5771205 7.14588417,26.0779177 3.468,23.87 C3.296,24.38 3.132,24.8896667 2.976,25.399 C9.833,29.047 15.435,28.29 15.435,28.29 Z" id="Trazado_153" fill="#ABB1B8"></path>
                                        <path d="M28.43,26.515 C28.43,26.515 32.336,27.215 38.105,21.857 C37.843,21.419 37.5793333,20.9886667 37.314,20.566 C35.0538719,23.4359805 31.9444367,25.5181541 28.43,26.515 L28.43,26.515 Z" id="Trazado_154" fill="#ABB1B8"></path>
                                        <path d="M36.874,49.819 C40.5614966,48.9992181 44.0400773,47.4270821 47.092,45.201 C46.9266667,44.4183333 46.753,43.6473333 46.571,42.888 C43.966,45.432 40.209,48.652 36.874,49.819 Z" id="Trazado_155" fill="#ABB1B8"></path>
                                        <path d="M14.628,52.876 C9.59312025,52.4411359 4.71536724,50.9048896 0.34,48.376 C0.377333333,48.976 0.421666667,49.576 0.473,50.176 C4.88630256,52.26095 9.75710278,53.1900324 14.628,52.876 L14.628,52.876 Z" id="Trazado_156" fill="#ABB1B8"></path>
                                        <path d="M41.916,77.065 C27.948,82.64 14.031,78.243 6.641,74.914 C6.945,75.6626667 7.25333333,76.3986667 7.566,77.122 C29.608,86.21 41.916,77.065 41.916,77.065 Z" id="Trazado_157" fill="#ABB1B8"></path>
                                        <path d="M20.582,94.439 C20.582,94.439 32.372,100.487 46.282,90.806 C46.3926667,90.2593333 46.5,89.7153333 46.604,89.174 C41.771,92.827 33.121,97.024 20.582,94.439 Z" id="Trazado_158" fill="#ABB1B8"></path>
                                        <path d="M44.06,64.566 C44.06,64.566 42.824,88.153 40.16,99.722 C40.51,99.598 40.8433333,99.4733333 41.16,99.348 C42.542,91.66 45.087,75.375 44.06,64.566 Z" id="Trazado_159" fill="#ABB1B8"></path>
                                        <path d="M26,12.96 C25.8,13.052 25.6,13.138 25.406,13.22 C35.0168283,25.2598521 41.1228068,39.716008 43.0531507,55 C43.0531507,55 43.281,32.866 26,12.96 Z" id="Trazado_160" fill="#ABB1B8"></path>
                                    </g>
                                    <g id="Grupo_56" transform="translate(0.000000, 75.000000)" fill="#E24444">
                                        <path d="M17.937,17.926 C15.9827674,13.7593821 14.3184784,9.4628369 12.956,5.067 C7.535,6.742 0.231,9.807 0.45,14.123 C0.798,20.966 17.459,42.577 17.459,42.577 C17.459,42.577 4.483,18.381 17.937,17.926 Z" id="Trazado_161"></path>
                                        <g id="Grupo_55" transform="translate(57.000000, 0.000000)">
                                            <path d="M5.707,38.327 C5.71877611,38.3089891 5.72882091,38.289904 5.737,38.27 C5.7,38.335 5.685,38.356 5.707,38.327 Z" id="Trazado_162"></path>
                                            <path d="M17.936,10.643 C17.436,4.689 6.557,1.387 1.136,0.106 C1.26998109,5.81892856 0.987902309,11.5340318 0.292,17.206 C12.584,13.316 6.359,36.866 5.733,38.275 C6.523,36.985 18.566,18.2 17.936,10.643 Z" id="Trazado_163"></path>
                                        </g>
                                    </g>
                                    <g id="Grupo_59" transform="translate(19.000000, 41.000000)">
                                        <g id="Grupo_57">
                                            <path d="M26.747,17.094 C24.583,23.756 17.075,27.294 9.977,24.984 C2.879,22.674 -1.123,15.41 1.042,8.748 C3.207,2.086 10.713,-1.447 17.811,0.858 C24.909,3.163 28.91,10.432 26.747,17.094 Z" id="Trazado_164" fill="#F2A72A"></path>
                                            <path d="M23.027,15.3 C21.519,19.944 16.285,22.406 11.337,20.8 C6.389,19.194 3.6,14.125 5.108,9.481 C6.616,4.837 11.85,2.374 16.798,3.981 C21.746,5.588 24.535,10.653 23.027,15.3 Z" id="Trazado_165" fill="#FFFFFF"></path>
                                        </g>
                                        <g id="Grupo_58" transform="translate(8.000000, 29.000000)">
                                            <ellipse id="Elipse_2" fill="#F2A72A" transform="translate(10.465370, 9.865306) rotate(-12.006708) translate(-10.465370, -9.865306) " cx="10.46537" cy="9.865306" rx="8.26795804" ry="7.76002205"></ellipse>
                                            <path d="M10.053,5.219 C12.5782348,5.26930368 14.6107334,7.30916265 14.6519085,9.83456279 C14.6930836,12.3599629 12.728165,14.4649974 10.2059123,14.5975973 C7.68365965,14.7301971 5.50885073,12.8427965 5.285,10.327 C5.19950206,7.60296696 7.32953653,5.32104245 10.053,5.219 Z" id="Trazado_166" fill="#FFFFFF"></path>
                                        </g>
                                    </g>
                                    <path d="M27.288,14.075 L25.494,4.445 C26.4605186,4.34957176 27.1984331,3.53887012 27.2027854,2.56766165 C27.2071377,1.59645318 26.4765188,0.77917056 25.5108942,0.675083758 C24.5452697,0.570996956 23.6572644,1.21380449 23.4545441,2.16363044 C23.2518239,3.11345639 23.8000202,4.06279076 24.724,4.362 C24.9227478,4.42678847 25.1310084,4.45755424 25.34,4.453 C25.359,6.27 25.405,10.568 25.44,14.553 C22.8096234,17.6460294 20.4395462,20.9512938 18.354,24.435 C22.696,27.005 30.736,29.977 38.774,23.619 C35.4000682,19.927095 31.53533,16.715789 27.288,14.075 Z" id="Trazado_167" fill="#E24444"></path>
                                    <g id="Grupo_60" transform="translate(26.000000, 110.000000)">
                                        <path d="M40.179,25.64 C40.179,25.64 43.123,8.899 27.914,0.471 C26.7880204,1.18539524 25.5950379,1.78824996 24.352,2.271 C27.497,6.271 30.702,14.235 22.693,26.692 L21.544,20.092 L17.737,31.817 C17.737,31.817 9.488,21.91 10.837,11.629 L7.727,16.601 C7.1190402,12.4250163 7.58644386,8.16296953 9.085,4.218 C7.47801271,4.02058157 5.88726165,3.70811261 4.325,3.283 C-0.34581667,11.3022262 -0.830587632,21.0904977 3.025,29.532 C3.025,29.532 4.418,22.938 6.925,22.912 C6.925,22.912 1.984,39.661 27.695,48.757 C27.695,48.757 42.858,31.996 34.141,19.694 C34.136,19.69 39.322,21.374 40.179,25.64 Z" id="Trazado_168" fill="#EC7530"></path>
                                        <path d="M24.6,2.59 L24.164,2.348 L24.164,2.348 C19.3721703,4.22009361 14.1876205,4.86163008 9.084,4.214 L9.084,4.214 C7.58544386,8.15896953 7.1180402,12.4210163 7.726,16.597 L10.836,11.625 C9.492,21.906 17.736,31.813 17.736,31.813 L21.543,20.088 L22.692,26.688 C30.495,14.557 27.655,6.687 24.6,2.59 Z" id="Trazado_169" fill="#F2A72A"></path>
                                    </g>
                                </g>
                            </g>
                        </g>
                    </g>
                </g>
            </g>
        </g>
    </g>
</svg>